<svg width="38" height="38" viewBox="0 0 38 38" fill="none" xmlns="http://www.w3.org/2000/svg">
<path fill-rule="evenodd" clip-rule="evenodd" d="M22.7077 10.005C21.3591 10.0419 20.1479 10.6139 19.2516 11.5236C18.6969 12.0866 17.8091 12.0745 17.2687 11.4966C16.7283 10.9188 16.7399 9.99393 17.2946 9.43094C18.6764 8.02857 20.5526 7.14144 22.634 7.08446C27.0247 6.96426 30.6777 10.5747 30.793 15.1487C30.8133 15.9551 30.2023 16.6261 29.428 16.6473C28.654 16.6685 28.0099 16.0319 27.9896 15.2254C27.9149 12.2644 25.5501 9.9272 22.7077 10.005Z" fill="#635E6B"/>
<path fill-rule="evenodd" clip-rule="evenodd" d="M36.0995 14.5449C36.1145 15.3515 35.4989 16.018 34.7247 16.0336L33.4148 16.06C32.6404 16.0756 32.0007 15.4343 31.9856 14.6277C31.9706 13.8211 32.5862 13.1546 33.3605 13.139L34.6703 13.1126C35.4448 13.097 36.0845 13.7383 36.0995 14.5449Z" fill="#635E6B"/>
<path fill-rule="evenodd" clip-rule="evenodd" d="M22.7782 6.18571C22.0039 6.20131 21.364 5.56006 21.3492 4.75343L21.3237 3.38891C21.3089 2.5823 21.9243 1.91576 22.6987 1.90018C23.473 1.88458 24.1127 2.52583 24.1277 3.33244L24.153 4.69698C24.168 5.50359 23.5524 6.17013 22.7782 6.18571Z" fill="#635E6B"/>
<path fill-rule="evenodd" clip-rule="evenodd" d="M29.2365 8.60246C28.6783 8.04312 28.6612 7.11837 29.1981 6.53699L30.1063 5.55347C30.6433 4.97209 31.531 4.95421 32.0892 5.51355C32.6472 6.0729 32.6643 6.99763 32.1274 7.57901L31.2192 8.56252C30.6822 9.14392 29.7946 9.1618 29.2365 8.60246Z" fill="#635E6B"/>
<path fill-rule="evenodd" clip-rule="evenodd" d="M13.4347 5.88892C13.9717 5.30754 14.8594 5.28966 15.4175 5.849L16.3616 6.79522C16.9197 7.35456 16.9368 8.27929 16.3999 8.86069C15.863 9.44207 14.9753 9.45995 14.4172 8.90061L13.4731 7.95439C12.915 7.39505 12.8978 6.47032 13.4347 5.88892Z" fill="#635E6B"/>
<path d="M16.2697 12.7495C14.3388 12.7495 11.9773 13.3903 10.0631 14.6948C8.37518 15.8453 6.92362 17.6027 6.57774 19.9769C3.64673 21.1323 1.8999 23.6399 1.8999 26.3201C1.8999 29.1862 3.03608 31.4913 5.47929 33.3767C6.87847 34.4564 8.95694 35.1121 11.1413 35.5134C13.3723 35.9232 15.9045 36.1001 18.3612 36.1001C20.8239 36.1001 23.3564 35.9078 25.5855 35.4906C27.7695 35.0819 29.8348 34.4274 31.2247 33.3907C32.4378 32.4859 33.3831 31.5504 33.9974 30.357C34.6166 29.1535 34.8225 27.8382 34.8225 26.3201C34.8225 23.6264 33.4285 20.9698 31.2781 19.4535C29.5132 18.2089 27.2622 17.7497 24.918 18.578C24.4373 16.8339 23.387 15.4952 22.0895 14.556C20.347 13.2946 18.1708 12.7495 16.2697 12.7495Z" fill="#CBCAD0"/>
</svg>
