<svg width="21" height="18" viewBox="0 0 21 18" fill="none" xmlns="http://www.w3.org/2000/svg">
<path d="M1.90247 11.8968V15.0218C1.90247 15.3734 2.1759 15.6468 2.52747 15.6468H17.5275C17.84 15.6468 18.1525 15.3734 18.1525 15.0218V11.8968H14.9493L14.129 13.5375C13.8947 14.0843 13.3478 14.3968 12.7618 14.3968H7.25403C6.66809 14.3968 6.12122 14.0843 5.88684 13.5375L5.06653 11.8968H1.90247ZM17.7618 10.0218L15.8478 2.40465C15.7697 2.09215 15.5353 1.89684 15.2618 1.89684H4.79309C4.48059 1.89684 4.24622 2.09215 4.16809 2.40465L2.25403 10.0218H5.26184C5.84778 10.0218 6.39465 10.3734 6.62903 10.9203L7.44934 12.5218H12.5665L13.3868 10.9203C13.6212 10.3734 14.1681 10.0218 14.754 10.0218H17.7618ZM0.0274658 11.5843C0.0274658 11.389 0.0274658 11.1937 0.0665283 10.9984L2.33215 1.9359C2.64465 0.803085 3.62122 0.0218353 4.79309 0.0218353H15.2618C16.3947 0.0218353 17.4103 0.803085 17.6837 1.9359L19.9493 10.9984C19.9884 11.1937 20.0275 11.389 20.0275 11.5843V15.0218C20.0275 16.4281 18.8947 17.5218 17.5275 17.5218H2.52747C1.12122 17.5218 0.0274658 16.4281 0.0274658 15.0218V11.5843Z" fill="black"/>
</svg>
