<svg width="38" height="38" viewBox="0 0 38 38" fill="none" xmlns="http://www.w3.org/2000/svg">
<path d="M18.9999 8.91528C13.4303 8.91528 8.91528 13.4303 8.91528 18.9999C8.91528 24.5695 13.4303 29.0844 18.9999 29.0844C24.5695 29.0844 29.0844 24.5695 29.0844 18.9999C29.0844 13.4303 24.5695 8.91528 18.9999 8.91528Z" fill="#D2C6FC"/>
<path d="M17.6846 4.96912C17.6846 5.69561 18.2735 6.28451 19 6.28451C19.7266 6.28451 20.3154 5.69561 20.3154 4.96912V3.21529C20.3154 2.48883 19.7266 1.8999 19 1.8999C18.2735 1.8999 17.6846 2.48883 17.6846 3.21529V4.96912Z" fill="#794DFF"/>
<path d="M4.96913 20.3153C5.69561 20.3153 6.28451 19.7265 6.28451 19C6.28451 18.2735 5.69561 17.6846 4.96913 17.6846H3.21529C2.48883 17.6846 1.8999 18.2735 1.8999 19C1.8999 19.7265 2.48883 20.3153 3.21529 20.3153H4.96913Z" fill="#794DFF"/>
<path d="M34.7845 20.3153C35.5109 20.3153 36.0999 19.7265 36.0999 19C36.0999 18.2735 35.5109 17.6846 34.7845 17.6846H33.0306C32.3043 17.6846 31.7153 18.2735 31.7153 19C31.7153 19.7265 32.3043 20.3153 33.0306 20.3153H34.7845Z" fill="#794DFF"/>
<path d="M19 36.1C18.2735 36.1 17.6846 35.511 17.6846 34.7846V33.0307C17.6846 32.3043 18.2735 31.7153 19 31.7153C19.7266 31.7153 20.3154 32.3043 20.3154 33.0307V34.7846C20.3154 35.511 19.7266 36.1 19 36.1Z" fill="#794DFF"/>
<path d="M6.90845 31.0913C6.39477 30.5775 6.39477 29.7448 6.90845 29.231L8.1486 27.9909C8.6623 27.4773 9.49515 27.4773 10.0089 27.9909C10.5226 28.5047 10.5226 29.3374 10.0089 29.8512L8.76868 31.0913C8.255 31.6051 7.42213 31.6051 6.90845 31.0913Z" fill="#794DFF"/>
<path d="M27.9913 8.14862C27.4775 8.66231 27.4775 9.49515 27.9913 10.0089C28.5049 10.5225 29.3378 10.5225 29.8516 10.0089L31.0917 8.76869C31.6053 8.25501 31.6053 7.42214 31.0917 6.90846C30.5779 6.39477 29.7452 6.39477 29.2314 6.90846L27.9913 8.14862Z" fill="#794DFF"/>
<path d="M6.90845 6.90846C7.42216 6.39477 8.255 6.39477 8.76869 6.90846L10.0089 8.14861C10.5225 8.66231 10.5225 9.49515 10.0089 10.0089C9.49515 10.5225 8.66231 10.5225 8.14862 10.0089L6.90845 8.76869C6.39477 8.25501 6.39477 7.42214 6.90845 6.90846Z" fill="#794DFF"/>
<path d="M29.8514 27.991C29.3378 27.4773 28.5049 27.4773 27.9913 27.991C27.4775 28.5046 27.4775 29.3376 27.9913 29.8511L29.2314 31.0915C29.7452 31.605 30.5779 31.605 31.0917 31.0915C31.6053 30.5777 31.6053 29.7447 31.0917 29.2312L29.8514 27.991Z" fill="#794DFF"/>
</svg>
