<svg width="18" height="21" viewBox="0 0 18 21" fill="none" xmlns="http://www.w3.org/2000/svg">
<path d="M5.94006 5.77184V8.27184H12.1901V5.77184C12.1901 4.05309 10.7838 2.64684 9.06506 2.64684C7.30725 2.64684 5.94006 4.05309 5.94006 5.77184ZM4.06506 8.27184V5.77184C4.06506 3.03746 6.29163 0.771835 9.06506 0.771835C11.7994 0.771835 14.0651 3.03746 14.0651 5.77184V8.27184H15.3151C16.6823 8.27184 17.8151 9.40465 17.8151 10.7718V18.2718C17.8151 19.6781 16.6823 20.7718 15.3151 20.7718H2.81506C1.40881 20.7718 0.315063 19.6781 0.315063 18.2718V10.7718C0.315063 9.40465 1.40881 8.27184 2.81506 8.27184H4.06506ZM2.19006 10.7718V18.2718C2.19006 18.6234 2.4635 18.8968 2.81506 18.8968H15.3151C15.6276 18.8968 15.9401 18.6234 15.9401 18.2718V10.7718C15.9401 10.4593 15.6276 10.1468 15.3151 10.1468H2.81506C2.4635 10.1468 2.19006 10.4593 2.19006 10.7718Z" fill="black"/>
</svg>
