<svg width="38" height="38" viewBox="0 0 38 38" fill="none" xmlns="http://www.w3.org/2000/svg">
<path fill-rule="evenodd" clip-rule="evenodd" d="M31.8018 23.3519C31.8018 30.3903 26.0703 36.0961 18.9998 36.0961C11.9294 36.0961 6.19775 30.3903 6.19775 23.3519C6.19775 16.3134 11.9294 10.6077 18.9998 10.6077C26.0703 10.6077 31.8018 16.3134 31.8018 23.3519Z" fill="#E8D7C8"/>
<path d="M21.2866 8.82959C24.5056 9.32756 27.3809 10.8603 29.5585 13.0755C29.6037 13.0078 29.65 12.938 29.6979 12.8661L34.9412 4.99097C35.8463 3.63144 36.2989 2.9517 36.0164 2.42775C35.7338 1.90381 34.9146 1.90381 33.2762 1.90381H30.0745C27.9157 1.90381 26.8363 1.90381 25.9344 2.39997C25.0325 2.89614 24.4581 3.80594 23.3094 5.62551L21.2866 8.82959Z" fill="#C28F58"/>
<path d="M8.46346 13.0533C10.6459 10.8424 13.5251 9.31531 16.7469 8.82444L13.5526 3.76467C12.8215 2.60662 11.5439 1.90381 10.17 1.90381H2.90037C2.10385 1.90381 1.6278 2.78647 2.06783 3.44739L8.33876 12.8661C8.38141 12.9301 8.42295 12.9925 8.46346 13.0533Z" fill="#C28F58"/>
<path d="M18.9998 17.8469C18.74 17.8469 18.5825 18.1963 18.2674 18.8951L18.1525 19.1498C17.6975 20.1589 17.47 20.6634 17.0435 20.9751C16.6169 21.2869 16.0652 21.3519 14.9619 21.4819L14.6903 21.514C13.9502 21.601 13.5801 21.6447 13.5001 21.8866C13.4201 22.1286 13.6917 22.3825 14.235 22.8903L14.3286 22.9777C15.2013 23.7934 15.6376 24.2013 15.7871 24.7447C15.9365 25.2881 15.7697 25.8604 15.4361 27.005L15.2941 27.492C15.0734 28.2491 14.9631 28.6276 15.1658 28.795C15.3686 28.9622 15.7218 28.7839 16.4281 28.4277L17.2034 28.0365C18.0848 27.5919 18.5256 27.3696 19.0008 27.3677C19.476 27.3658 19.9187 27.5845 20.8037 28.022L21.5776 28.4047C22.2821 28.753 22.6344 28.9272 22.8356 28.7593C23.0368 28.5915 22.9262 28.2157 22.7052 27.4642L22.5715 27.0097C22.234 25.8631 22.0653 25.2897 22.2145 24.7447C22.3636 24.1998 22.8012 23.7909 23.6761 22.973L23.7647 22.8903C24.3081 22.3825 24.5796 22.1286 24.4996 21.8866C24.4196 21.6447 24.0495 21.601 23.3094 21.514L23.0379 21.4819C21.9346 21.3519 21.3828 21.2869 20.9563 20.9751C20.5297 20.6634 20.3023 20.1589 19.8472 19.1498L19.7323 18.8951C19.4173 18.1963 19.2598 17.8469 18.9998 17.8469Z" fill="#C28F58"/>
</svg>
