<svg width="19" height="21" viewBox="0 0 19 21" fill="none" xmlns="http://www.w3.org/2000/svg">
<path d="M2.23694 5.75223C2.00165 5.86987 1.884 6.06595 1.884 6.26203C1.884 9.86988 3.37419 16.0267 9.17812 18.8111C9.29576 18.8895 9.49184 18.8895 9.60949 18.8111C15.4134 16.066 16.9036 9.86988 16.9428 6.26203C16.9428 6.06595 16.786 5.86987 16.5899 5.75223L9.41341 2.73262L2.23694 5.75223ZM17.2958 4.02674C18.1585 4.41889 18.8252 5.24242 18.8252 6.26203C18.786 10.1836 17.1781 17.2816 10.433 20.5365C9.76635 20.8503 9.02125 20.8503 8.35459 20.5365C1.60949 17.2816 0.00164508 10.1836 0.00164508 6.26203C-0.0375706 5.24242 0.629096 4.41889 1.49184 4.02674L8.86439 0.889482C9.02125 0.811051 9.21733 0.771835 9.41341 0.771835C9.57027 0.771835 9.76635 0.811051 9.92321 0.889482L17.2958 4.02674ZM13.8448 8.96791L8.82517 13.9875C8.43302 14.3797 7.84478 14.3797 7.49184 13.9875L4.98204 11.4777C4.58988 11.1248 4.58988 10.5365 4.98204 10.1836C5.33498 9.79144 5.92321 9.79144 6.31537 10.1836L8.15851 12.0267L12.5114 7.6738C12.8644 7.28164 13.4526 7.28164 13.8448 7.6738C14.1977 8.02674 14.1977 8.61497 13.8448 8.96791Z" fill="black"/>
</svg>
