<svg width="38" height="38" viewBox="0 0 38 38" fill="none" xmlns="http://www.w3.org/2000/svg">
<path fill-rule="evenodd" clip-rule="evenodd" d="M32.6518 2.76102C31.5051 1.61286 29.646 1.61286 28.4991 2.76102L20.5288 10.7415L27.2265 17.4477L35.197 9.46726C36.3436 8.31911 36.3436 6.45757 35.197 5.3094L32.6518 2.76102Z" fill="#E1C5F9"/>
<path d="M11.739 9.36048C12.2114 9.78891 12.8997 10.1242 13.5752 10.3759C14.4139 10.6884 14.8333 10.8446 14.8333 10.9819C14.8333 11.1192 14.4139 11.2755 13.5752 11.588C12.8997 11.8397 12.2114 12.1749 11.739 12.6034C11.1568 13.1314 10.7244 13.9626 10.4123 14.7895C10.0382 15.7804 9.85113 16.2759 9.71475 16.2759C9.57835 16.2759 9.39132 15.7804 9.01723 14.7895C8.70506 13.9626 8.27273 13.1314 7.69049 12.6034C7.21811 12.1749 6.52982 11.8397 5.8543 11.588C5.01556 11.2755 4.59619 11.1192 4.59619 10.9819C4.59619 10.8446 5.01556 10.6884 5.8543 10.3759C6.52982 10.1242 7.21811 9.78891 7.69049 9.36048C8.27273 8.83239 8.70506 8.00124 9.01723 7.17436C9.39132 6.18343 9.57835 5.68799 9.71475 5.68799C9.85113 5.68799 10.0382 6.18345 10.4123 7.17436C10.7244 8.00124 11.1568 8.83239 11.739 9.36048Z" fill="#A855F7"/>
<path d="M18.5158 6.48307C18.8231 6.76178 19.2709 6.97989 19.7104 7.14363C20.2559 7.34691 20.5287 7.44856 20.5287 7.53788C20.5287 7.62722 20.2559 7.72885 19.7104 7.93215C19.2709 8.09587 18.8231 8.31397 18.5158 8.59268C18.137 8.93622 17.8558 9.47692 17.6527 10.0148C17.4094 10.6595 17.2877 10.9818 17.1989 10.9818C17.1102 10.9818 16.9885 10.6595 16.7452 10.0148C16.5421 9.47692 16.2609 8.93622 15.8821 8.59268C15.5748 8.31397 15.127 8.09587 14.6876 7.93215C14.142 7.72885 13.8691 7.62722 13.8691 7.53788C13.8691 7.44856 14.142 7.34691 14.6876 7.14363C15.127 6.97989 15.5748 6.76178 15.8821 6.48307C16.2609 6.13953 16.5421 5.59883 16.7452 5.06092C16.9885 4.41629 17.1102 4.09399 17.1989 4.09399C17.2877 4.09399 17.4094 4.41631 17.6527 5.06092C17.8558 5.59883 18.137 6.13953 18.5158 6.48307Z" fill="#A855F7"/>
<path d="M31.7464 26.1008C32.4507 26.7396 33.5067 27.2267 34.5075 27.5792C35.5692 27.9531 36.1 28.1401 36.1 28.3147C36.1 28.4893 35.5692 28.6762 34.5075 29.0502C33.5067 29.4026 32.4507 29.8898 31.7464 30.5285C30.8794 31.3148 30.256 32.5933 29.8232 33.8195C29.379 35.0785 29.1569 35.7079 28.9826 35.7079C28.8084 35.7079 28.5863 35.0785 28.1421 33.8195C27.7093 32.5933 27.0857 31.3148 26.2189 30.5285C25.5146 29.8898 24.4585 29.4026 23.4578 29.0502C22.3961 28.6762 21.8652 28.4893 21.8652 28.3147C21.8652 28.1401 22.3961 27.9531 23.4578 27.5792C24.4585 27.2267 25.5146 26.7396 26.2189 26.1008C27.0857 25.3146 27.7093 24.0361 28.1421 22.8098C28.5863 21.5509 28.8084 20.9214 28.9826 20.9214C29.1569 20.9214 29.379 21.5509 29.8232 22.8098C30.256 24.0361 30.8794 25.3146 31.7464 26.1008Z" fill="#A855F7"/>
<path fill-rule="evenodd" clip-rule="evenodd" d="M27.2265 17.4475L20.5286 10.7412L3.04748 28.2446C1.73505 29.5588 1.39306 31.8191 2.84656 33.2743L4.72193 35.152C6.17544 36.6074 8.43284 36.2651 9.74529 34.9508L27.2265 17.4475Z" fill="#A855F7"/>
</svg>
